<?xml version="1.0" encoding="UTF-8" standalone="no"?>
<!-- Created with Inkscape (http://www.inkscape.org/) -->

<svg
   xmlns:dc="http://purl.org/dc/elements/1.1/"
   xmlns:cc="http://creativecommons.org/ns#"
   xmlns:rdf="http://www.w3.org/1999/02/22-rdf-syntax-ns#"
   xmlns:svg="http://www.w3.org/2000/svg"
   xmlns="http://www.w3.org/2000/svg"
   xmlns:sodipodi="http://sodipodi.sourceforge.net/DTD/sodipodi-0.dtd"
   xmlns:inkscape="http://www.inkscape.org/namespaces/inkscape"
   width="210mm"
   height="297mm"
   viewBox="0 0 744.09448819 1052.3622047"
   id="svg2"
   version="1.1"
   inkscape:version="0.91 r13725"
   sodipodi:docname="throw line.svg">
  <defs
     id="defs4" />
  <sodipodi:namedview
     id="base"
     pagecolor="#ffffff"
     bordercolor="#666666"
     borderopacity="1.0"
     inkscape:pageopacity="0.0"
     inkscape:pageshadow="2"
     inkscape:zoom="1.4142136"
     inkscape:cx="73.735112"
     inkscape:cy="809.44873"
     inkscape:document-units="px"
     inkscape:current-layer="layer1"
     showgrid="false"
     inkscape:window-width="1920"
     inkscape:window-height="1018"
     inkscape:window-x="1672"
     inkscape:window-y="359"
     inkscape:window-maximized="1" />
  <metadata
     id="metadata7">
    <rdf:RDF>
      <cc:Work
         rdf:about="">
        <dc:format>image/svg+xml</dc:format>
        <dc:type
           rdf:resource="http://purl.org/dc/dcmitype/StillImage" />
        <dc:title></dc:title>
      </cc:Work>
    </rdf:RDF>
  </metadata>
  <g
     inkscape:label="Layer 1"
     inkscape:groupmode="layer"
     id="layer1">
    <rect
       style="fill:none;fill-opacity:0.48730965;stroke:#000000;stroke-width:2;stroke-linecap:butt;stroke-linejoin:miter;stroke-miterlimit:4;stroke-dasharray:none;stroke-dashoffset:0;stroke-opacity:1"
       id="rect4136"
       width="146.42857"
       height="92.14286"
       x="51.42857"
       y="45.219345"
       rx="32.936474"
       ry="15.970567" />
    <text
       xml:space="preserve"
       style="font-style:normal;font-weight:normal;font-size:22.5px;line-height:125%;font-family:sans-serif;letter-spacing:0px;word-spacing:0px;fill:#000000;fill-opacity:1;stroke:none;stroke-width:1px;stroke-linecap:butt;stroke-linejoin:miter;stroke-opacity:1"
       x="70"
       y="82.362206"
       id="text4138"
       sodipodi:linespacing="125%"><tspan
         sodipodi:role="line"
         id="tspan4140"
         x="70"
         y="82.362206">Assign as </tspan><tspan
         sodipodi:role="line"
         x="70"
         y="110.48721"
         id="tspan4142">Box</tspan></text>
    <path
       style="fill:#ff0000;fill-opacity:1;stroke:none;stroke-width:2;stroke-linecap:butt;stroke-linejoin:miter;stroke-miterlimit:4;stroke-dasharray:none;stroke-dashoffset:0;stroke-opacity:1"
       id="path4172"
       d="m 187.76109,118.72471 c 2.99774,0.84513 6.00962,1.74537 8.83728,3.06304 2.72024,1.45706 4.85174,3.59083 6.77948,5.95856 2.46268,3.02121 4.31248,6.43531 6.18344,9.83255 1.43912,2.57626 2.46575,5.293 2.93805,8.20208 0.30649,2.59295 0.24097,5.2087 0.23794,7.81392 0.0783,2.73313 -0.48386,5.44097 -1.05096,8.10215 -0.44586,2.44186 -1.45988,4.71218 -2.38215,6.99935 -1.1019,2.27064 -2.29933,4.49467 -3.58013,6.66887 -1.41874,2.37802 -2.88704,4.71931 -4.42884,7.02028 -1.54164,2.20804 -3.05846,4.43494 -4.71168,6.56142 -1.82417,2.32888 -3.73293,4.58372 -5.79359,6.70645 -2.12587,2.10965 -4.23958,4.23381 -6.42609,6.28101 -2.22374,1.89884 -4.35853,3.89659 -6.53335,5.84986 -2.30433,1.98963 -4.58297,4.00891 -6.82303,6.07066 -1.51804,1.32673 -2.95326,2.74077 -4.36565,4.17755 -0.86766,0.80272 -1.57498,1.75375 -2.13977,2.78737 -0.6396,1.11192 -0.8245,2.36297 -0.93935,3.61869 -0.0927,1.40355 -0.0825,2.81126 -0.0811,4.2171 -0.0264,1.43397 0.0828,2.87297 -0.0676,4.30084 -0.96771,5.12084 2.23938,1.44403 -13.90085,-0.4306 -0.25684,-0.0298 0.43093,-0.28742 0.63076,-0.45151 0.64271,-0.52777 1.23635,-1.11263 1.85472,-1.66873 2.77632,-2.40883 5.59771,-4.77042 8.49715,-7.02963 2.95947,-2.37132 6.14189,-4.37532 9.45373,-6.20392 2.46745,-1.42837 5.12185,-2.48547 7.68896,-3.71363 0.0729,0.0615 2.21945,-1.192 2.2404,-1.17578 0.14329,0.11093 -0.26491,0.51269 -0.0853,0.53689 12.93221,1.74285 17.91531,-0.43986 12.49404,1.72347 -3.70886,1.72231 -7.23098,3.83683 -10.68774,6.01524 -2.40304,1.60235 -4.86943,3.10635 -7.28005,4.69639 -1.46309,0.83272 -2.89019,1.70992 -4.28079,2.65914 -1.06426,0.74178 -2.01038,1.63097 -2.93802,2.53363 -1.02297,0.95163 -2.00835,1.93842 -3.05631,2.86308 -4.02792,3.98075 -14.87088,7.73568 -17.08095,0.35256 -0.49842,-2.68712 -0.74581,-5.40032 -0.90328,-8.12556 -0.23192,-2.49227 -0.064,-5.01048 -0.32865,-7.49743 -0.0784,-1.49342 -0.81378,-2.6326 -1.68476,-3.7817 -1.22683,-1.61002 -2.83977,-2.84367 -4.35003,-4.1702 -0.77165,-0.85652 -1.62265,-1.64004 -2.56922,-2.2965 0,0 14.05377,-1.27587 14.05377,-1.27587 l 0,0 c 0.87111,0.76334 1.69593,1.57152 2.52643,2.37848 1.58056,1.38834 3.17221,2.7773 4.42528,4.48355 0.95009,1.38112 1.5924,2.82751 1.66338,4.53608 0.18853,2.50579 0.014,5.02868 0.20135,7.53719 0.16809,2.53007 0.34999,5.10381 1.10381,7.53858 4.53233,1.74452 -0.32591,-0.16043 -13.42548,-0.0241 -0.27634,0.003 0.43476,0.45701 1.04774,0.18744 0.35759,-0.15726 0.98526,-0.78117 1.25631,-1.03128 1.03671,-0.93178 2.09745,-1.82986 3.01904,-2.8747 1.04518,-0.82188 1.86438,-1.90365 2.98243,-2.63551 1.3233,-1.09238 2.81281,-2.01549 4.35553,-2.768 2.51443,-1.53145 5.0087,-3.09519 7.49232,-4.67872 3.45305,-2.17551 6.98991,-4.21151 10.51698,-6.26378 5.39543,-2.40174 1.78557,-0.97445 15.71861,0.35398 0.20238,0.0193 0.0181,0.43921 -0.10541,0.6007 -0.20207,0.26425 -2.2373,0.87178 -2.4044,1.1541 -2.54591,1.30811 -5.23912,2.29536 -7.76782,3.63616 -1.49444,0.84561 -3.06814,1.57188 -4.52775,2.4765 -1.72899,1.07156 -3.31996,2.3546 -4.99235,3.50802 -2.84496,2.22135 -5.61273,4.54512 -8.32588,6.92537 -0.57892,0.55405 -1.19073,1.07528 -1.7402,1.65854 -0.20554,0.21818 -0.27144,0.69193 -0.57118,0.69456 -7.25907,0.0637 -16.47461,3.9279 -14.36161,-1.14119 0.23437,-1.35052 0.0133,-2.74589 0.0841,-4.11072 -0.001,-1.44699 -0.01,-2.89554 0.0785,-4.34052 0.11787,-1.43561 0.30439,-2.87823 0.93674,-4.19221 0.61544,-1.17263 1.25481,-2.30354 2.20606,-3.24805 1.55644,-1.32279 2.86465,-2.93557 4.50249,-4.17659 2.251,-2.06713 4.54158,-4.09527 6.85036,-6.09862 2.206,-1.90242 4.25337,-3.98187 6.50134,-5.83835 2.26009,-1.94646 4.3038,-4.13238 6.46359,-6.18798 2.03868,-2.06606 3.953,-4.23609 5.70637,-6.55106 1.63577,-2.11795 3.22681,-4.26415 4.78072,-6.44502 1.47667,-2.31352 2.98902,-4.59695 4.34314,-6.98462 1.32303,-2.06659 2.40901,-4.27684 3.58494,-6.42986 0.88154,-2.22764 1.89361,-4.4163 2.38003,-6.77611 0.6025,-2.55044 1.10452,-5.16426 1.07204,-7.79424 0.001,-2.52839 0.0129,-5.06901 -0.28629,-7.58317 -0.46136,-2.74119 -1.41633,-5.3198 -2.79085,-7.74319 -1.78167,-3.35716 -3.67078,-6.66044 -6.18561,-9.53767 -1.94854,-2.16849 -4.0844,-4.12905 -6.78358,-5.32859 -2.88569,-1.18851 -5.87441,-2.15481 -8.9359,-2.77398 0,0 13.98425,-1.90246 13.98425,-1.90246 z"
       inkscape:connector-curvature="0" />
    <path
       style="fill:#ff0000;fill-opacity:1;stroke:none;stroke-width:2;stroke-linecap:butt;stroke-linejoin:miter;stroke-miterlimit:4;stroke-dasharray:none;stroke-dashoffset:0;stroke-opacity:1"
       id="path4184"
       d="m 447.23891,62.428264 c -5.35992,-1.174519 -21.43517,-0.83093 1.69559,-0.774189 -3.48127,-0.0038 -6.95528,0.250188 -10.31918,1.169129 -1.82869,0.493994 -3.46122,1.372226 -4.99523,2.4599 -1.55865,1.194557 -2.98425,2.553913 -4.34407,3.967555 -1.42399,1.594162 -2.73768,3.282451 -3.95256,5.040122 -0.99021,1.605835 -1.92486,3.260375 -2.60969,5.021764 -0.71867,1.651502 -1.37355,3.322025 -1.9817,5.018001 -0.72313,1.547687 -1.15095,3.163555 -1.37597,4.849996 -0.16445,1.594646 -0.17407,3.200263 -0.17712,4.801782 0.069,1.56326 -0.10585,3.146244 0.10356,4.698804 0.2297,1.559942 0.43078,3.108022 0.95199,4.602532 0.48681,1.60696 1.10889,3.16676 1.82615,4.68456 0.89451,1.89347 1.90881,3.7495 3.03226,5.51979 1.0967,1.36149 2.17956,2.72893 3.24004,4.1158 1.04763,1.00677 2.26624,1.9072 3.61067,2.47559 1.61207,1.01019 3.34995,1.65533 5.20139,2.07272 2.68853,0.57621 5.38722,0.93248 8.13028,1.10851 5.33752,0.23447 4.39141,0.17227 -10.65669,0.0155 -0.51147,-0.005 1.02251,-0.0332 1.53341,-0.0582 1.40031,-0.0684 2.77167,-0.21039 4.15806,-0.41185 2.08817,-0.3513 4.08831,-1.06818 6.07921,-1.76795 1.86018,-0.62528 3.65121,-1.41013 5.34665,-2.39657 1.62526,-1.02607 3.15971,-2.16458 4.58659,-3.45076 1.50256,-1.19165 2.56781,-2.67067 3.50539,-4.31848 0.97154,-1.73153 1.39149,-3.64594 1.59939,-5.59884 0.15728,-1.74989 0.17128,-3.48712 -0.0861,-5.22424 -0.35092,-1.470326 -0.25071,-3.018889 -0.5904,-4.483342 -0.23799,-1.127591 -0.47565,-2.21426 -1.01192,-3.240987 -0.62134,-1.004709 -1.02337,-2.195393 -1.79323,-3.102511 -0.79389,-1.068469 -1.31698,-2.297099 -2.43108,-3.071102 -0.95023,-0.82159 -2.12376,-1.421228 -3.24775,-1.995403 -1.32579,-0.647055 -2.66138,-1.095536 -4.12516,-1.294823 -1.37801,-0.505784 -2.82956,-0.680732 -4.28425,-0.776264 -1.42495,-0.06768 -2.85209,-0.05832 -4.27822,-0.05601 -5.1922,0.01286 0.24428,-0.0012 12.52704,0.0021 0.23405,6.2e-5 -0.46858,-0.01201 -0.70214,0.003 -0.71358,0.04597 -1.4287,0.208088 -2.13113,0.333127 -1.3826,0.375603 -2.75319,0.844916 -4.05919,1.435956 -1.0762,0.411479 -2.07243,0.893511 -2.95661,1.635293 -0.88747,0.704822 -1.73477,1.457519 -2.35188,2.41445 -0.59235,1.196009 -0.98183,2.459568 -1.21041,3.770337 -0.19499,1.384907 -0.20087,2.786527 -0.21117,4.182247 0.14192,1.38812 0.45772,2.737409 0.9891,4.026671 0.74639,0.992751 1.19019,2.179461 2.05665,3.077641 0.92368,0.96938 2.01282,1.72297 3.25895,2.20921 1.35746,0.41849 2.78738,0.42947 4.19461,0.44839 5.03029,-0.024 12.30304,0.12906 -11.10509,-0.008 -0.40786,-0.002 0.8073,-0.13676 1.19472,-0.26429 1.11963,-0.38493 1.93874,-1.2142 2.6929,-2.09028 0,0 14.10336,0.91617 14.10336,0.91617 l 0,0 c -0.75523,1.1136 -1.63832,2.08951 -2.75128,2.84923 -0.20173,0.0961 -0.40535,0.18832 -0.60519,0.28829 -0.22034,0.11021 -0.40892,0.33392 -0.65515,0.34214 -5.54387,0.18512 -11.2368,0.3152 -16.8384,0.11574 -1.47529,-0.10959 -2.95,-0.30608 -4.26743,-1.03242 -1.26346,-0.75821 -2.44307,-1.65402 -3.35272,-2.82769 -0.75206,-1.12312 -1.44303,-2.29113 -2.03442,-3.50668 -0.52956,-1.471903 -0.89716,-2.989201 -1.00934,-4.554361 0.0109,-1.46951 0.0223,-2.943829 0.21322,-4.403416 0.23121,-1.468629 0.64273,-2.869499 1.20902,-4.244413 0.57076,-1.204673 1.38881,-2.124292 2.38398,-2.992648 0.98191,-0.706966 1.75413,-1.696996 3.00323,-1.970776 1.34802,-0.604427 2.69642,-1.19895 4.1054,-1.65672 5.78243,-2.088152 12.3321,-0.259066 18.26529,-0.703705 1.43422,0.01194 2.87213,0.02544 4.29833,0.194481 1.45816,0.203367 2.87103,0.57706 4.30206,0.912565 1.46366,0.391662 2.85156,0.995479 4.17877,1.725698 1.1584,0.694347 2.36799,1.293611 3.28808,2.315334 0.9384,1.040988 1.63631,2.256066 2.46392,3.384144 0.65469,1.085785 1.25396,2.211867 1.8131,3.348892 0.49513,1.157302 0.77565,2.362873 1.01155,3.597378 0.23533,1.50923 0.25593,3.047936 0.54441,4.552454 0.24259,1.851003 0.24751,3.707153 0.0661,5.566993 -0.22305,2.13996 -0.66564,4.22873 -1.64096,6.16852 -0.96579,1.75021 -1.84735,3.50745 -3.49528,4.73744 -1.40869,1.42331 -2.98244,2.61807 -4.64216,3.73326 -1.68499,1.13136 -3.47047,2.03922 -5.38477,2.72007 -2.05223,0.67629 -4.05885,1.49281 -6.16456,2.00035 -7.47282,1.26143 -15.14629,0.95184 -22.6878,0.55563 -2.7811,-0.24824 -5.5355,-0.67832 -8.24705,-1.35587 -1.87194,-0.58541 -3.63156,-1.38775 -5.33164,-2.36631 -1.35497,-0.84157 -2.67046,-1.79265 -3.64283,-3.0753 -1.11235,-1.38941 -2.18759,-2.81144 -3.19658,-4.2777 -1.10085,-1.85034 -2.1765,-3.73231 -3.07709,-5.68741 -0.70613,-1.58301 -1.37755,-3.17849 -1.8539,-4.8482 -0.4839,-1.59698 -0.74473,-3.23396 -0.96964,-4.88534 -0.15451,-1.616013 -0.0721,-3.240167 -0.0882,-4.861864 0.006,-1.662312 -0.0151,-3.329237 0.17697,-4.983567 0.23344,-1.775248 0.58262,-3.533377 1.39296,-5.147787 0.60694,-1.704791 1.2165,-3.404328 1.9876,-5.041483 0.68662,-1.879977 1.65618,-3.632521 2.65644,-5.360836 1.23785,-1.810469 2.54259,-3.557137 3.96932,-5.224724 1.30917,-1.541722 2.81289,-2.906326 4.33657,-4.23369 1.5626,-1.260639 3.19704,-2.347495 5.12871,-2.964742 0.60535,-0.183412 2.14943,-0.661498 2.72104,-0.788937 2.57976,-0.575153 5.26683,-0.623942 7.8942,-0.719862 8.58286,-0.0065 17.37262,-0.611498 25.88034,1.01298 0,0 -13.98425,1.902456 -13.98425,1.902456 z"
       inkscape:connector-curvature="0" />
    <path
       style="fill:none;fill-rule:evenodd;stroke:#000000;stroke-width:0;stroke-linecap:butt;stroke-linejoin:miter;stroke-opacity:1;stroke-miterlimit:4;stroke-dasharray:none"
       d="m 443.70951,149.38684 c -2.78925,-0.70901 -7.27763,-2.40602 -10.25305,-1.41421 -0.46098,0.15366 -1.07062,0.01 -1.41422,0.35355 -0.4714,0.47141 0.75,0.33926 -0.35355,0.70711 -1.73808,0.57936 -3.38718,1.07961 -4.94975,2.12132 -0.85086,0.56725 -2.28966,0.52527 -3.18198,1.06066 -1.95793,1.17476 -4.06843,1.88733 -6.01041,3.18198 -0.81224,0.5415 0.15161,0.20195 -0.7071,1.06066 -0.39755,0.39755 -1.2956,0.74588 -1.76777,1.06066 -1.74133,1.16089 -3.46948,3.61324 -4.59619,5.3033 -0.48731,0.73096 -0.80198,1.86264 -1.41422,2.47488 -1.66927,1.66927 -2.96978,4.41924 -3.88908,6.71751 -0.34514,0.86284 -1.23238,1.56569 -1.41422,2.47487 -0.54413,2.72068 -1.65463,5.33162 -2.12132,8.13173 -1.21238,7.2743 2.75697,14.77779 7.42462,19.44544 0.23769,0.23768 1.05166,0.52583 1.41422,0.70711 5.41581,2.7079 6.27632,2.89037 12.72792,3.53553 7.46155,0.74616 -5.5898,-0.0492 4.24264,0.70711 6.6263,0.50971 13.50331,0 20.15254,0 3.81594,0 11.4255,-0.87934 14.49569,-3.18198 1.30741,-0.98056 2.48689,-2.34067 3.88909,-3.18198 2.56293,-1.53776 4.55576,-3.24593 6.36396,-5.65686 0.83187,-1.10915 2.30883,-2.23653 2.82843,-3.53553 0.1313,-0.32827 -0.0858,-0.71767 0,-1.06066 0.14291,-0.57166 0.87432,-0.8552 1.06066,-1.41422 0.14731,-0.44194 -0.0982,-1.27672 0,-1.76776 0.47536,-2.37683 1.70136,-4.8618 1.06066,-7.42462 -0.31294,-1.25176 -0.99163,-1.85825 -1.76777,-2.82843 -0.65374,-0.81718 -1.03756,-2.09823 -1.76777,-2.82843 -0.73471,-0.73472 -3.28265,-3.4848 -3.88908,-3.88909 -0.40431,-0.26953 -0.9796,-0.13624 -1.41422,-0.35355 -0.29814,-0.14907 -0.4714,-0.4714 -0.7071,-0.70711 -0.47141,-0.2357 -0.92979,-0.49949 -1.41422,-0.7071 -2.34295,-1.00412 -5.57365,-1.86552 -8.13173,-2.12132 -2.8823,-0.28823 -5.93897,0 -8.83883,0 -4.78958,0 -11.2222,-0.79861 -14.49569,2.47487 -2.45971,2.45971 0.0315,-0.19254 -1.76777,0.70711 -1.82721,0.9136 -4.59619,3.58367 -4.59619,5.3033"
       id="path4188"
       inkscape:connector-curvature="0" />
    <path
       style="fill:none;fill-rule:evenodd;stroke:#000000;stroke-width:0;stroke-linecap:butt;stroke-linejoin:miter;stroke-opacity:1;stroke-miterlimit:4;stroke-dasharray:none"
       d="m 440.17397,150.09395 c -0.34612,-1.82512 -0.96104,-3.10727 -2.47487,-4.24264 -2.55438,-1.91578 -8.93387,-2.12132 -12.02082,-2.12132 -5.56644,0 -10.81188,2.3266 -14.49569,6.01041 -3.73321,3.73321 0.0557,-0.32736 -2.12132,1.41421 -3.04515,2.43613 -5.81935,6.10922 -8.13172,9.19239 -2.86244,3.81658 0.20327,-0.053 -1.41422,3.18198 -1.61807,3.23615 0.29308,-3.00055 -1.41421,2.12132 -1.8673,5.60189 -3.24107,11.90166 -2.47488,18.03122 0.17448,1.3958 1.11484,2.89542 1.41422,4.24264 0.69566,3.13046 1.70977,6.10019 3.53553,8.83884 7.05369,10.58052 29.51755,15.43219 41.36575,16.61701 5.98214,0.59821 17.23263,1.21417 22.98097,-0.35356 1.37841,-0.37592 2.30676,-1.15338 3.53553,-1.76776 0.16578,-0.0829 2.19105,-1.03579 2.47488,-1.41422 0.2236,-0.29814 0.12994,-0.76251 0.35355,-1.06066 0.15811,-0.21081 0.56093,-0.13429 0.70711,-0.35355 0.13074,-0.19612 -0.10541,-0.49629 0,-0.70711 0.36126,-0.72252 1.44629,-1.67118 1.76776,-2.47487 1.39347,-3.48367 2.56415,-7.33183 1.76777,-11.31371 -0.0882,-0.44099 -0.94166,-1.52977 -1.06066,-1.76777 -0.49497,-0.98995 -0.56568,-2.19203 -1.06066,-3.18198 -0.60595,-1.21189 -1.51537,-2.32363 -2.12132,-3.53553 -0.82742,-1.65484 -1.4929,-2.41612 -2.47487,-3.88909 -0.20673,-0.31008 -0.11102,-0.7777 -0.35356,-1.06066 -1.41668,-1.65279 -3.22739,-2.43949 -4.94974,-3.53553 -0.77655,-0.49417 -1.34478,-1.2736 -2.12132,-1.76777 -3.31079,-2.10686 -7.13566,-3.76361 -10.60661,-5.65685 -6.8015,-3.70992 -16.25592,-7.93293 -24.04163,-4.5962 -5.076,2.17543 -11.15753,7.14484 -9.89949,13.43503 0.4652,2.32603 3.05181,4.74512 4.94975,6.01041 0.31008,0.20672 0.76964,0.12074 1.06066,0.35355 0.3318,0.26545 0.36133,0.81368 0.7071,1.06066 -0.1047,2.97737 1.50115,0.29366 2.12132,0.70711 1.35162,0.90108 6.40941,2.62893 8.13173,1.76777 1.61808,-0.80904 -1.50027,0.14654 1.06066,-0.70711 0.22361,-0.0745 0.54044,0.16667 0.70711,0 0.35644,-0.35645 0.19186,-0.89896 0.7071,-1.41421"
       id="path4194"
       inkscape:connector-curvature="0" />
    <path
       style="fill:none;fill-rule:evenodd;stroke:#000000;stroke-width:10;stroke-linecap:butt;stroke-linejoin:miter;stroke-opacity:1;stroke-miterlimit:4;stroke-dasharray:none"
       d="m 446.89149,146.20486 c -3.5925,-3.68811 -9.30462,-2.82842 -14.14214,-2.82842 -0.97558,0 -3.3709,-0.43587 -4.24264,0 -1.43542,0.71771 -3.21179,1.29067 -4.59619,2.12132 -1.32793,0.79675 -2.47774,2.12275 -3.88909,2.82842 -4.15044,2.07522 -8.43616,5.60773 -11.66726,8.83884 -0.97725,0.97724 -1.19913,2.61334 -2.12132,3.53553 -0.18634,0.18634 -0.549,0.14274 -0.70711,0.35356 -1.24317,0.15443 -0.084,1.00991 -0.35355,1.41421 -2.69182,4.03773 -3.96806,9.58721 -4.94975,14.49569 -0.66971,3.34856 0,7.52187 0,10.96015 0,1.97423 -0.38429,4.44253 0,6.36396 0.53551,2.67755 1.99403,5.40228 3.18198,7.77818 1.80709,3.61417 10.85312,9.09003 14.49569,9.89949 3.46645,0.77033 7.06864,0.41228 10.6066,0.70711 5.61003,0.4675 13.43752,1.06035 19.09188,0.35355 1.37206,-0.1715 2.28058,-1.20505 3.53554,-1.41421 5.11832,-0.85305 11.09198,-3.66736 14.84924,-7.42462 5.64574,-5.64574 10.09287,-20.08616 8.13173,-27.93072 -0.0746,-0.29855 0.15454,-1.10514 0,-1.41421 -1.40492,-2.80983 -3.84833,-5.28292 -6.71752,-6.71752 -4.25762,-2.12881 -9.14293,-3.31351 -13.78858,-4.24264 -1.17708,-0.23541 -2.31873,-0.85786 -3.53553,-1.06066 -0.61005,-0.10167 -1.50354,0.15445 -2.12132,0 -3.09012,-0.77253 -5.8825,-1.06066 -9.19239,-1.06066 -1.39258,0 -3.66489,-0.42828 -4.94975,0 -1.16415,0.38805 -2.09913,1.1435 -3.18198,1.41422 -1.7259,0.43147 -6.73391,3.7369 -7.77817,5.3033 -0.13075,0.19611 0.13074,0.51099 0,0.7071 -0.86125,1.29187 -0.51757,-0.37908 -1.06066,0.70711 -2.12432,4.24864 -3.53554,5.76856 -3.53554,10.96016 0,0.66612 -0.20545,1.85851 0,2.47487 0.70633,2.11899 -0.0905,-0.88802 1.06066,1.41421 0.15812,0.31623 -0.19611,0.76649 0,1.06066 1.13423,1.70135 2.47069,4.06378 4.24264,4.94975 0.37992,0.18996 1.00516,-0.13635 1.41422,0 1.65653,0.55218 4.46006,1.34174 6.36396,0.70711 0.64708,-0.2157 5.57841,-2.318 5.65685,-2.47488 0.10541,-0.21081 -0.16667,-0.54044 0,-0.7071 0.16667,-0.16667 0.49629,0.10541 0.70711,0 1.70848,-0.85424 3.05265,-2.92333 3.88909,-4.5962 0.11785,-0.2357 0.58925,-0.11785 0.7071,-0.35355 0.12491,-0.24982 0.35356,-1.56254 0.35356,-1.76777"
       id="path4196"
       inkscape:connector-curvature="0" />
    <path
       style="fill:none;fill-rule:evenodd;stroke:#000000;stroke-width:0;stroke-linecap:butt;stroke-linejoin:miter;stroke-opacity:1;stroke-miterlimit:4;stroke-dasharray:none"
       d="m 569.92807,132.06273 c -0.53416,-0.26708 -2.27665,-1.26333 -3.18198,-1.41422 -2.8552,-0.47586 -12.29772,-0.49695 -14.84925,0.35356 -0.40311,0.13437 -0.65209,0.59037 -1.06066,0.7071 -0.45326,0.12951 -0.98092,-0.18569 -1.41421,0 -0.45957,0.19696 -0.65379,0.77005 -1.06066,1.06066 -2.19047,1.56462 -4.42348,3.36282 -6.36396,5.30331 -0.60093,0.60092 -0.86115,1.47607 -1.41422,2.12132 -1.91049,2.2289 -4.68224,4.06119 -6.0104,6.71751 -0.32059,0.64118 -0.12686,1.44125 -0.35356,2.12132 -1.24234,3.72702 -1.06066,5.96977 -1.06066,9.8995 0,3.13128 -0.51548,6.80661 0,9.89949 0.48392,2.90352 2.09847,5.7765 3.18198,8.48528 0.35801,0.89502 0.70266,0.5192 1.06066,1.41422 0.13131,0.32826 -0.0693,0.71397 0,1.06066 0.38174,1.90868 4.85524,7.35374 6.36397,8.48528 0.18856,0.14142 0.49628,-0.10541 0.7071,0 1.44769,0.72384 2.63362,1.83126 4.24264,2.47487 8.98973,3.59589 24.02593,2.12132 33.94113,2.12132 2.33907,0 4.79254,-0.0561 7.07107,-0.70711 0.96817,-0.27662 1.84385,-0.84968 2.82842,-1.06066 2.14305,0 1.92018,0.13868 3.88909,-0.35355 3.01141,-0.75285 11.03307,-3.38174 13.43503,-5.3033 1.64282,-1.31426 2.28616,-3.51166 3.18198,-5.3033 1.53238,-3.06476 2.47487,-5.31234 2.47487,-8.83884 0,-1.80958 0.56949,-4.65551 0,-6.36396 -2.2998,-6.89939 -8.69053,-12.20708 -15.55635,-14.49569 -1.24489,-0.41496 -2.92724,-0.13432 -4.24264,-0.35355 -5.90912,-0.98485 -12.47472,-0.3852 -18.38477,0.35355 -1.84595,0.23075 -3.82296,-0.30564 -5.65686,0 -4.88705,0.81451 -12.37437,8.01485 -12.37437,13.08148 0,1.11064 -0.97063,3.36203 -0.35355,4.59619 0.11785,0.23571 0.56093,0.13429 0.70711,0.35356 0.13074,0.19611 -0.13075,0.51099 0,0.7071 0.34708,0.52063 5.04774,2.87743 5.65685,3.18198 1.26733,0.63367 10.62577,1.39505 12.02082,0"
       id="path4198"
       inkscape:connector-curvature="0" />
    <rect
       style="fill:none;fill-opacity:0.48730965;stroke:#000000;stroke-width:2;stroke-linecap:butt;stroke-linejoin:miter;stroke-miterlimit:4;stroke-dasharray:none;stroke-dashoffset:0;stroke-opacity:1"
       id="rect4136-4"
       width="146.42857"
       height="92.14286"
       x="50.5294"
       y="218.22026"
       rx="32.936474"
       ry="15.970567" />
    <rect
       style="fill:none;fill-opacity:0.48730965;stroke:#000000;stroke-width:2;stroke-linecap:butt;stroke-linejoin:miter;stroke-miterlimit:4;stroke-dasharray:none;stroke-dashoffset:0;stroke-opacity:1"
       id="rect4136-6"
       width="146.42857"
       height="92.14286"
       x="46.993862"
       y="391.4614"
       rx="32.936474"
       ry="15.970567" />
    <path
       style="fill:#ff0000;fill-opacity:1;stroke:none;stroke-width:2;stroke-linecap:butt;stroke-linejoin:miter;stroke-miterlimit:4;stroke-dasharray:none;stroke-dashoffset:0;stroke-opacity:1"
       id="path4172-5"
       d="m 191.01552,289.92028 c 2.99774,0.84513 6.00962,1.74537 8.83728,3.06304 2.72024,1.45706 4.85174,3.59083 6.77948,5.95856 2.46268,3.02121 4.31248,6.43531 6.18344,9.83255 1.43912,2.57626 2.46575,5.293 2.93805,8.20208 0.30649,2.59295 0.24097,5.2087 0.23794,7.81392 0.0783,2.73313 -0.48386,5.44097 -1.05096,8.10215 -0.44586,2.44186 -1.45988,4.71218 -2.38215,6.99935 -1.1019,2.27064 -2.29933,4.49467 -3.58013,6.66887 -1.41874,2.37802 -2.88704,4.71931 -4.42884,7.02028 -1.54164,2.20804 -3.05846,4.43494 -4.71168,6.56142 -1.82417,2.32888 -3.73293,4.58372 -5.79359,6.70645 -2.12587,2.10965 -4.23958,4.23381 -6.42609,6.28101 -2.22374,1.89884 -4.35853,3.89659 -6.53335,5.84986 -2.30433,1.98963 -4.58297,4.00891 -6.82303,6.07066 -1.51804,1.32673 -2.95326,2.74077 -4.36565,4.17755 -0.86766,0.80272 -1.57498,1.75375 -2.13977,2.78737 -0.6396,1.11192 -0.8245,2.36297 -0.93935,3.61869 -0.0927,1.40355 -0.0825,2.81126 -0.0811,4.2171 -0.0264,1.43397 0.0828,2.87297 -0.0676,4.30084 -0.96771,5.12084 2.23938,1.44403 -13.90085,-0.4306 -0.25684,-0.0298 0.43093,-0.28742 0.63076,-0.45151 0.64271,-0.52777 1.23635,-1.11263 1.85472,-1.66873 2.77632,-2.40883 5.59771,-4.77042 8.49715,-7.02963 2.95947,-2.37132 6.14189,-4.37532 9.45373,-6.20392 2.46745,-1.42837 5.12185,-2.48547 7.68896,-3.71363 0.0729,0.0615 2.21945,-1.192 2.2404,-1.17578 0.14329,0.11093 -0.26491,0.51269 -0.0853,0.53689 12.93221,1.74285 17.91531,-0.43986 12.49404,1.72347 -3.70886,1.72231 -7.23098,3.83683 -10.68774,6.01524 -2.40304,1.60235 -4.86943,3.10635 -7.28005,4.69639 -1.46309,0.83272 -2.89019,1.70992 -4.28079,2.65914 -1.06426,0.74178 -2.01038,1.63097 -2.93802,2.53363 -1.02297,0.95163 -2.00835,1.93842 -3.05631,2.86308 -4.02792,3.98075 -14.87088,7.73568 -17.08095,0.35256 -0.49842,-2.68712 -0.74581,-5.40032 -0.90328,-8.12556 -0.23192,-2.49227 -0.064,-5.01048 -0.32865,-7.49743 -0.0784,-1.49342 -0.81378,-2.6326 -1.68476,-3.7817 -1.22683,-1.61002 -2.83977,-2.84367 -4.35003,-4.1702 -0.77165,-0.85652 -1.62265,-1.64004 -2.56922,-2.2965 0,0 14.05377,-1.27587 14.05377,-1.27587 l 0,0 c 0.87111,0.76334 1.69593,1.57152 2.52643,2.37848 1.58056,1.38834 3.17221,2.7773 4.42528,4.48355 0.95009,1.38112 1.5924,2.82751 1.66338,4.53608 0.18853,2.50579 0.014,5.02868 0.20135,7.53719 0.16809,2.53007 0.34999,5.10381 1.10381,7.53858 4.53233,1.74452 -0.32591,-0.16043 -13.42548,-0.0241 -0.27634,0.003 0.43476,0.45701 1.04774,0.18744 0.35759,-0.15726 0.98526,-0.78117 1.25631,-1.03128 1.03671,-0.93178 2.09745,-1.82986 3.01904,-2.8747 1.04518,-0.82188 1.86438,-1.90365 2.98243,-2.63551 1.3233,-1.09238 2.81281,-2.01549 4.35553,-2.768 2.51443,-1.53145 5.0087,-3.09519 7.49232,-4.67872 3.45305,-2.17551 6.98991,-4.21151 10.51698,-6.26378 5.39543,-2.40174 1.78557,-0.97445 15.71861,0.35398 0.20238,0.0193 0.0181,0.43921 -0.10541,0.6007 -0.20207,0.26425 -2.2373,0.87178 -2.4044,1.1541 -2.54591,1.30811 -5.23912,2.29536 -7.76782,3.63616 -1.49444,0.84561 -3.06814,1.57188 -4.52775,2.4765 -1.72899,1.07156 -3.31996,2.3546 -4.99235,3.50802 -2.84496,2.22135 -5.61273,4.54512 -8.32588,6.92537 -0.57892,0.55405 -1.19073,1.07528 -1.7402,1.65854 -0.20554,0.21818 -0.27144,0.69193 -0.57118,0.69456 -7.25907,0.0637 -16.47461,3.9279 -14.36161,-1.14119 0.23437,-1.35052 0.0133,-2.74589 0.0841,-4.11072 -10e-4,-1.44699 -0.01,-2.89554 0.0785,-4.34052 0.11787,-1.43561 0.30439,-2.87823 0.93674,-4.19221 0.61544,-1.17263 1.25481,-2.30354 2.20606,-3.24805 1.55644,-1.32279 2.86465,-2.93557 4.50249,-4.17659 2.251,-2.06713 4.54158,-4.09527 6.85036,-6.09862 2.206,-1.90242 4.25337,-3.98187 6.50134,-5.83835 2.26009,-1.94646 4.3038,-4.13238 6.46359,-6.18798 2.03868,-2.06606 3.953,-4.23609 5.70637,-6.55106 1.63577,-2.11795 3.22681,-4.26415 4.78072,-6.44502 1.47667,-2.31352 2.98902,-4.59695 4.34314,-6.98462 1.32303,-2.06659 2.40901,-4.27684 3.58494,-6.42986 0.88154,-2.22764 1.89361,-4.4163 2.38003,-6.77611 0.6025,-2.55044 1.10452,-5.16426 1.07204,-7.79424 0.001,-2.52839 0.0129,-5.06901 -0.28629,-7.58317 -0.46136,-2.74119 -1.41633,-5.3198 -2.79085,-7.74319 -1.78167,-3.35716 -3.67078,-6.66044 -6.18561,-9.53767 -1.94854,-2.16849 -4.0844,-4.12905 -6.78358,-5.32859 -2.88569,-1.18851 -5.87441,-2.15481 -8.9359,-2.77398 0,0 13.98425,-1.90246 13.98425,-1.90246 z"
       inkscape:connector-curvature="0" />
    <text
       xml:space="preserve"
       style="font-style:normal;font-weight:normal;font-size:22.5px;line-height:125%;font-family:sans-serif;letter-spacing:0px;word-spacing:0px;fill:#000000;fill-opacity:1;stroke:none;stroke-width:1px;stroke-linecap:butt;stroke-linejoin:miter;stroke-opacity:1"
       x="68.283745"
       y="259.00027"
       id="text4138-8"
       sodipodi:linespacing="125%"><tspan
         sodipodi:role="line"
         id="tspan4140-9"
         x="68.283745"
         y="259.00027">Assign as </tspan><tspan
         sodipodi:role="line"
         x="68.283745"
         y="287.12527"
         id="tspan4142-4">Gripper</tspan></text>
    <text
       xml:space="preserve"
       style="font-style:normal;font-weight:normal;font-size:22.5px;line-height:125%;font-family:sans-serif;letter-spacing:0px;word-spacing:0px;fill:#000000;fill-opacity:1;stroke:none;stroke-width:1px;stroke-linecap:butt;stroke-linejoin:miter;stroke-opacity:1"
       x="-118.0746"
       y="417.50952"
       id="text4257-0"
       sodipodi:linespacing="125%"
       transform="matrix(0.70710678,-0.70710678,0.70710678,0.70710678,0,0)"><tspan
         sodipodi:role="line"
         id="tspan4259-9"
         x="-118.0746"
         y="417.50952"
         style="fill:#ff0000;fill-opacity:1">Throw</tspan></text>
    <text
       xml:space="preserve"
       style="font-style:normal;font-weight:normal;font-size:22.5px;line-height:125%;font-family:sans-serif;letter-spacing:0px;word-spacing:0px;fill:#000000;fill-opacity:1;stroke:none;stroke-width:1px;stroke-linecap:butt;stroke-linejoin:miter;stroke-opacity:1"
       x="11.197144"
       y="292.54004"
       id="text4257-0-9"
       sodipodi:linespacing="125%"
       transform="matrix(0.70710678,-0.70710678,0.70710678,0.70710678,0,0)"><tspan
         sodipodi:role="line"
         id="tspan4259-9-7"
         x="11.197144"
         y="292.54004"
         style="fill:#ff0000;fill-opacity:1">Throw</tspan></text>
    <text
       xml:space="preserve"
       style="font-style:normal;font-weight:normal;font-size:22.5px;line-height:125%;font-family:sans-serif;letter-spacing:0px;word-spacing:0px;fill:#000000;fill-opacity:1;stroke:none;stroke-width:1px;stroke-linecap:butt;stroke-linejoin:miter;stroke-opacity:1"
       x="74.246208"
       y="425.8656"
       id="text4297"
       sodipodi:linespacing="125%"><tspan
         sodipodi:role="line"
         id="tspan4299"
         x="74.246208"
         y="425.8656">Do </tspan><tspan
         sodipodi:role="line"
         x="74.246208"
         y="453.9906"
         id="tspan4301">nothing</tspan></text>
  </g>
</svg>
